<?xml version="1.0" standalone="no"?>
<!DOCTYPE svg PUBLIC "-//W3C//DTD SVG 20010904//EN"
 "http://www.w3.org/TR/2001/REC-SVG-20010904/DTD/svg10.dtd">
<svg version="1.0" xmlns="http://www.w3.org/2000/svg"
 width="438.000000pt" height="246.000000pt" viewBox="0 0 438.000000 246.000000"
 preserveAspectRatio="xMidYMid meet">

<g transform="translate(0.000000,246.000000) scale(0.100000,-0.100000)"
fill="#000000" stroke="none">
<path d="M2226 1994 c-9 -8 -28 -36 -43 -62 -49 -87 -45 -86 -126 -41 -104 56
-107 55 -107 -40 0 -114 3 -111 -100 -111 -49 0 -91 -4 -95 -9 -3 -5 13 -44
35 -87 22 -43 40 -82 40 -88 0 -6 -26 -25 -58 -43 -31 -18 -68 -41 -81 -52
l-25 -19 80 -52 c43 -28 79 -55 79 -58 0 -4 -18 -42 -40 -84 -22 -42 -36 -80
-32 -84 3 -4 46 -10 94 -13 l88 -6 3 -88 c2 -64 7 -89 17 -93 7 -3 51 14 96
37 50 26 84 39 86 32 9 -25 96 -153 104 -153 5 0 26 27 47 59 20 33 42 68 48
78 11 17 17 15 95 -25 45 -23 86 -39 90 -35 4 5 10 46 12 93 l4 85 91 6 c51 3
95 9 99 12 4 4 -12 44 -35 90 -23 45 -42 85 -42 88 0 4 31 26 69 49 39 23 75
48 81 55 12 14 9 16 -128 102 l-23 14 41 73 c22 41 40 80 40 88 0 16 -63 28
-147 28 l-43 0 0 89 c0 50 -4 93 -10 96 -5 3 -48 -13 -94 -36 -47 -24 -87 -41
-89 -38 -2 2 -25 39 -51 82 -26 42 -49 77 -51 77 -2 0 -11 -7 -19 -16z m58
-157 c16 -34 17 -48 9 -125 -6 -48 -9 -89 -7 -91 2 -2 17 26 34 63 52 112 111
161 148 124 30 -30 9 -93 -60 -180 -35 -44 -26 -49 23 -12 103 77 189 86 189
19 0 -30 -44 -69 -115 -102 l-60 -28 96 -5 c106 -6 132 -17 127 -59 -5 -42
-40 -53 -150 -47 -54 4 -98 4 -98 2 0 -2 33 -20 74 -40 71 -35 126 -83 126
-110 0 -7 -9 -21 -20 -31 -28 -26 -77 -13 -149 40 -34 25 -63 45 -66 45 -2 0
13 -27 35 -61 55 -85 66 -123 46 -154 -9 -14 -23 -25 -30 -25 -29 0 -80 56
-113 124 l-34 71 7 -77 c10 -123 -25 -190 -82 -154 -32 22 -38 52 -31 155 7
93 8 93 -45 -9 -39 -74 -75 -105 -111 -96 -50 12 -40 85 21 163 21 26 42 54
47 62 10 17 5 14 -75 -40 -62 -42 -98 -54 -135 -45 -20 5 -25 13 -25 37 0 41
42 79 117 109 32 13 62 27 67 31 4 4 -36 5 -90 2 -91 -5 -101 -4 -126 17 -34
26 -35 40 -4 69 23 22 31 23 125 19 55 -2 97 0 95 4 -2 3 -30 18 -62 33 -102
47 -152 118 -101 145 31 17 77 2 147 -46 35 -24 65 -44 67 -44 3 0 -15 30 -40
66 -25 36 -48 76 -51 90 -9 36 3 72 27 79 35 11 71 -24 116 -114 l41 -82 -5
98 c-5 91 -4 100 17 126 30 38 60 33 84 -16z"/>
<path d="M2215 1533 c-22 -6 -43 -26 -62 -61 -11 -18 -9 -28 10 -63 13 -22 26
-41 30 -42 4 0 27 -3 52 -7 33 -5 45 -4 45 6 0 7 7 20 16 29 10 9 17 32 17 54
0 59 -51 98 -108 84z m75 -57 c17 -33 6 -69 -26 -86 -53 -29 -103 30 -73 86
18 34 80 34 99 0z"/>
<path d="M764 687 c-2 -7 -3 -96 -2 -197 3 -157 5 -185 18 -185 13 0 15 30 18
198 2 173 0 197 -13 197 -9 0 -18 -6 -21 -13z"/>
<path d="M3786 678 c-9 -12 -16 -38 -16 -58 0 -52 -10 -78 -31 -83 -25 -7 -24
-27 1 -34 24 -6 29 -25 32 -123 2 -59 6 -75 18 -75 12 0 16 19 20 95 5 90 6
94 30 100 35 8 40 40 6 40 -19 0 -27 6 -32 25 -9 36 4 95 21 96 8 1 21 2 28 3
6 0 12 8 12 16 0 10 -12 16 -37 18 -28 2 -40 -2 -52 -20z"/>
<path d="M360 491 l0 -191 94 0 c96 0 111 5 100 34 -5 12 -21 16 -70 16 l-64
0 -2 163 -3 162 -27 3 -28 3 0 -190z"/>
<path d="M620 655 c0 -22 4 -26 23 -23 14 2 22 10 22 23 0 13 -8 21 -22 23
-19 3 -23 -1 -23 -23z"/>
<path d="M1607 673 c-4 -7 12 -47 110 -271 20 -45 41 -81 46 -79 7 2 80 162
154 334 7 17 -25 29 -39 15 -6 -6 -31 -60 -57 -119 -25 -60 -49 -110 -53 -111
-17 -5 -28 -1 -28 8 0 6 -21 60 -46 120 -35 83 -50 110 -64 110 -11 0 -21 -3
-23 -7z"/>
<path d="M3365 668 c-3 -8 -4 -92 -3 -188 l3 -175 89 -3 c92 -3 111 3 100 31
-5 13 -20 17 -70 17 l-64 0 -2 163 c-3 160 -3 162 -26 165 -12 2 -24 -3 -27
-10z"/>
<path d="M3617 667 c-8 -21 8 -39 29 -35 27 5 25 42 -2 46 -12 2 -24 -3 -27
-11z"/>
<path d="M1146 663 c-3 -3 -6 -33 -6 -65 0 -45 3 -58 15 -58 12 0 15 13 15 59
0 56 -9 79 -24 64z"/>
<path d="M1270 537 c-13 -7 -29 -25 -34 -39 -12 -34 10 -61 74 -92 51 -24 63
-53 29 -74 -19 -12 -27 -11 -60 4 -42 19 -60 13 -43 -14 8 -12 27 -18 63 -20
70 -4 101 16 101 63 0 36 -23 59 -87 84 -24 10 -33 20 -33 37 0 28 37 42 68
25 28 -15 42 7 17 26 -23 16 -62 17 -95 0z"/>
<path d="M2005 541 c-11 -5 -31 -21 -45 -36 -21 -22 -25 -36 -25 -87 0 -55 3
-62 33 -89 27 -24 41 -29 86 -29 56 0 106 26 106 56 0 19 -29 18 -51 -2 -42
-38 -129 -10 -129 43 0 22 2 23 94 23 52 0 97 3 99 8 8 15 -13 69 -36 90 -26
24 -100 37 -132 23z m96 -41 c23 -13 25 -46 3 -54 -29 -11 -90 -6 -110 9 -19
15 -19 15 5 35 25 22 71 26 102 10z"/>
<path d="M2290 537 c-31 -15 -60 -71 -60 -115 0 -45 24 -98 50 -112 23 -12 91
-10 123 4 28 13 24 -58 -5 -78 -28 -20 -72 -20 -92 -1 -21 21 -58 20 -54 -2 9
-47 148 -58 191 -15 20 21 22 34 25 167 3 126 2 146 -12 151 -9 3 -22 1 -30
-5 -10 -8 -21 -7 -42 4 -35 18 -61 19 -94 2z m110 -45 c18 -14 23 -30 24 -66
1 -41 -3 -51 -27 -72 -34 -29 -56 -30 -91 -3 -21 17 -26 29 -26 68 0 80 64
119 120 73z"/>
<path d="M2620 543 c-77 -28 -100 -154 -39 -219 17 -19 33 -24 69 -24 25 0 52
6 58 12 10 10 17 10 33 0 11 -7 24 -10 29 -7 6 4 10 58 10 121 0 87 -3 114
-13 114 -7 0 -18 -5 -24 -11 -8 -8 -19 -6 -41 5 -32 16 -55 19 -82 9z m100
-55 c26 -29 27 -97 1 -129 -13 -16 -29 -23 -55 -23 -51 0 -70 22 -70 85 0 42
5 55 23 70 31 26 75 24 101 -3z"/>
<path d="M2966 534 c-24 -13 -33 -14 -49 -4 -12 7 -23 8 -29 2 -5 -5 -7 -58
-6 -118 2 -89 6 -109 18 -109 12 0 16 18 20 83 4 73 8 86 29 103 28 23 74 25
95 3 12 -11 16 -36 16 -99 0 -86 6 -100 35 -89 15 6 17 20 13 105 -3 73 -8
103 -19 115 -24 23 -88 27 -123 8z"/>
<path d="M3974 535 c-41 -21 -64 -64 -64 -119 0 -36 6 -52 31 -81 28 -32 36
-35 86 -35 74 0 145 48 98 67 -9 3 -24 -2 -35 -12 -43 -39 -130 -12 -130 42 0
23 2 23 100 23 l100 0 0 25 c0 14 -4 25 -10 25 -5 0 -10 6 -10 13 0 47 -108
81 -166 52z m110 -41 c9 -8 16 -21 16 -29 0 -26 -94 -34 -126 -10 -19 15 -19
15 5 35 28 24 83 26 105 4z"/>
<path d="M624 527 c-2 -7 -3 -60 -2 -118 2 -84 6 -104 18 -104 12 0 16 21 18
118 2 101 0 117 -13 117 -9 0 -18 -6 -21 -13z"/>
<path d="M874 523 c4 -10 23 -60 43 -111 l37 -93 -32 -64 c-23 -47 -28 -65
-18 -68 7 -3 18 -2 23 1 11 7 173 330 173 344 0 5 -9 8 -20 8 -15 0 -28 -18
-55 -75 -19 -41 -40 -75 -47 -75 -7 0 -19 19 -26 42 -27 85 -40 108 -63 108
-16 0 -20 -4 -15 -17z"/>
<path d="M3624 527 c-2 -7 -3 -60 -2 -118 2 -84 6 -104 18 -104 12 0 16 21 18
118 2 101 0 117 -13 117 -9 0 -18 -6 -21 -13z"/>
</g>
</svg>
